<?xml version="1.0" encoding="utf-8"?><svg xmlns="http://www.w3.org/2000/svg" xmlns:xlink="http://www.w3.org/1999/xlink"><symbol viewBox="0 0 66 66" id="chevron-left" xmlns="http://www.w3.org/2000/svg"><defs><path id="aa" d="M31 527.001c0-18.226 14.723-33 32.885-33 18.161 0 32.884 14.774 32.884 33 0 18.225-14.723 33-32.884 33-18.162 0-32.885-14.775-32.885-33zm3.946 0c0 16.038 12.956 29.04 28.939 29.04 15.982 0 28.938-13.002 28.938-29.04 0-16.039-12.956-29.04-28.938-29.04-15.983 0-28.939 13.001-28.939 29.04zm17.106.088c-.001-.03-.005-.058-.006-.088 0-.03.005-.058.006-.089.014-.522.21-1.035.606-1.425l13.932-13.7c.85-.836 2.264-.8 3.158.08.895.88.931 2.27.082 3.106l-12.231 12.028 12.23 12.028c.85.836.814 2.227-.08 3.106-.895.88-2.31.916-3.16.08l-13.93-13.701a2.048 2.048 0 0 1-.607-1.425z"/></defs><use xlink:href="#aa" opacity=".75" transform="translate(-31 -494)"/></symbol><symbol viewBox="0 0 66 66" id="chevron-right" xmlns="http://www.w3.org/2000/svg"><defs><path id="ba" d="M1537.115 560.001c-18.161 0-32.884-14.775-32.884-33 0-18.226 14.723-33 32.884-33 18.162 0 32.885 14.774 32.885 33 0 18.225-14.723 33-32.885 33zm0-62.04c-15.982 0-28.938 13.001-28.938 29.04 0 16.038 12.956 29.04 28.938 29.04 15.983 0 28.939-13.002 28.939-29.04 0-16.039-12.956-29.04-28.939-29.04zm11.227 30.553l-13.932 13.7c-.85.837-2.264.8-3.158-.08-.895-.878-.931-2.27-.081-3.105L1543.4 527l-12.23-12.028c-.85-.836-.814-2.226.08-3.106.895-.88 2.31-.916 3.16-.08l13.93 13.7c.397.39.593.904.607 1.425l.006.09c0 .029-.005.057-.006.087a2.049 2.049 0 0 1-.606 1.425z"/></defs><use xlink:href="#ba" opacity=".75" transform="translate(-1504 -494)"/></symbol><symbol viewBox="0 0 512 512" id="location" xmlns="http://www.w3.org/2000/svg"><path d="M256 0C153.755 0 70.573 83.182 70.573 185.426c0 126.888 165.939 313.167 173.004 321.035 6.636 7.391 18.222 7.378 24.846 0 7.065-7.868 173.004-194.147 173.004-321.035C441.425 83.182 358.244 0 256 0zm0 278.719c-51.442 0-93.292-41.851-93.292-93.293S204.559 92.134 256 92.134s93.291 41.851 93.291 93.293-41.85 93.292-93.291 93.292z"/></symbol><symbol viewBox="0 0 512 512" id="menu" xmlns="http://www.w3.org/2000/svg"><path d="M491.318 235.318H20.682C9.26 235.318 0 244.577 0 256s9.26 20.682 20.682 20.682h470.636c11.423 0 20.682-9.259 20.682-20.682 0-11.422-9.259-20.682-20.682-20.682zm0-156.879H20.682C9.26 78.439 0 87.699 0 99.121c0 11.422 9.26 20.682 20.682 20.682h470.636c11.423 0 20.682-9.26 20.682-20.682 0-11.422-9.259-20.682-20.682-20.682zm0 313.758H20.682C9.26 392.197 0 401.456 0 412.879s9.26 20.682 20.682 20.682h470.636c11.423 0 20.682-9.259 20.682-20.682s-9.259-20.682-20.682-20.682z"/></symbol><symbol viewBox="0 0 511.626 511.626" id="message" xmlns="http://www.w3.org/2000/svg"><path d="M49.106 178.729c6.472 4.567 25.981 18.131 58.528 40.685 32.548 22.554 57.482 39.92 74.803 52.099 1.903 1.335 5.946 4.237 12.131 8.71 6.186 4.476 11.326 8.093 15.416 10.852 4.093 2.758 9.041 5.852 14.849 9.277 5.806 3.422 11.279 5.996 16.418 7.7 5.14 1.718 9.898 2.569 14.275 2.569h.575c4.377 0 9.137-.852 14.277-2.569 5.137-1.704 10.615-4.281 16.416-7.7 5.804-3.429 10.752-6.52 14.845-9.277 4.093-2.759 9.229-6.376 15.417-10.852 6.184-4.477 10.232-7.375 12.135-8.71 17.508-12.179 62.051-43.11 133.615-92.79 13.894-9.703 25.502-21.411 34.827-35.116 9.332-13.699 13.993-28.07 13.993-43.105 0-12.564-4.523-23.319-13.565-32.264-9.041-8.947-19.749-13.418-32.117-13.418H45.679c-14.655 0-25.933 4.948-33.832 14.844C3.949 79.562 0 91.934 0 106.779c0 11.991 5.236 24.985 15.703 38.974 10.466 13.99 21.604 24.983 33.403 32.976z"/><path d="M483.072 209.275c-62.424 42.251-109.824 75.087-142.177 98.501-10.849 7.991-19.65 14.229-26.409 18.699-6.759 4.473-15.748 9.041-26.98 13.702-11.228 4.668-21.692 6.995-31.401 6.995h-.578c-9.707 0-20.177-2.327-31.405-6.995-11.228-4.661-20.223-9.229-26.98-13.702-6.755-4.47-15.559-10.708-26.407-18.699-25.697-18.842-72.995-51.68-141.896-98.501C17.987 202.047 8.375 193.762 0 184.437v226.685c0 12.57 4.471 23.319 13.418 32.265 8.945 8.949 19.701 13.422 32.264 13.422h420.266c12.56 0 23.315-4.473 32.261-13.422 8.949-8.949 13.418-19.694 13.418-32.265V184.437c-8.186 9.132-17.7 17.417-28.555 24.838z"/></symbol><symbol viewBox="0 0 348.077 348.077" id="phone" xmlns="http://www.w3.org/2000/svg"><path d="M340.273 275.083l-53.755-53.761c-10.707-10.664-28.438-10.34-39.518.744l-27.082 27.076a792.327 792.327 0 0 1-5.344-2.973c-17.102-9.476-40.509-22.464-65.14-47.113-24.704-24.701-37.704-48.144-47.209-65.257-1.003-1.813-1.964-3.561-2.913-5.221l18.176-18.149 8.936-8.947c11.097-11.1 11.403-28.826.721-39.521L73.39 8.194c-10.682-10.68-28.421-10.356-39.518.744l-15.15 15.237.414.411c-5.08 6.482-9.325 13.958-12.484 22.02C3.74 54.28 1.927 61.603 1.098 68.941-6 127.785 20.89 181.564 93.866 254.541c100.875 100.868 182.167 93.248 185.674 92.876 7.638-.913 14.958-2.738 22.397-5.627 7.992-3.122 15.463-7.361 21.941-12.43l.331.294 15.348-15.029c11.074-11.098 11.393-28.83.716-39.542z"/></symbol><symbol viewBox="0 0 615.52 615.52" id="search" xmlns="http://www.w3.org/2000/svg"><path d="M602.531 549.736l-184.31-185.368c26.679-37.72 42.528-83.729 42.528-133.548C460.75 103.35 357.997 0 231.258 0 104.518 0 1.765 103.35 1.765 230.82s102.753 230.82 229.493 230.82c49.53 0 95.271-15.944 132.78-42.777l184.31 185.366a38.117 38.117 0 0 0 27.102 11.291c9.812 0 19.62-3.77 27.083-11.291 14.963-15.041 14.963-39.452-.002-54.493zM355.9 319.763l-15.042 21.273-21.158 15.138c-26.083 18.658-56.667 28.526-88.442 28.526-84.365 0-152.995-69.035-152.995-153.88 0-84.846 68.63-153.88 152.995-153.88s152.996 69.034 152.996 153.88c.017 31.949-9.792 62.706-28.354 88.943z"/></symbol><symbol viewBox="0 0 612.002 612.002" id="upwards-arrow" xmlns="http://www.w3.org/2000/svg"><path d="M592.639 358.376L423.706 189.439c-64.904-64.892-170.509-64.892-235.421.005L19.363 358.379c-25.817 25.817-25.817 67.674 0 93.489 25.817 25.817 67.679 25.819 93.491-.002l168.92-168.927c13.354-13.357 35.092-13.361 48.444-.005l168.93 168.932c12.91 12.907 29.825 19.365 46.747 19.365 16.915 0 33.835-6.455 46.747-19.365 25.814-25.815 25.814-67.673-.003-93.49z"/></symbol></svg>